<?xml version="1.0" encoding="UTF-8"?>
<svg id="_图层_1" data-name="图层 1" xmlns="http://www.w3.org/2000/svg" viewBox="0 0 2349.2 235.31">
  <g>
    <path d="M131.83,197.47h0c-6.74,1.19-14.75,2.25-23.8,3.16-8.59.87-18.11,1.33-28.3,1.38v-83.58c5.58.04,11.53.29,17.69.75,6.56.5,12.82,1.08,18.61,1.72,6.78.76,13.32,1.55,19.46,2.35l1.41.18,5.05-23.62-2.21.34c-4.67.72-10.22,1.37-16.48,1.92-5.28.46-11.83.92-19.45,1.38-7.12.44-15.22.71-24.08.81V31.81l8.65-.47c3.31-.21,6.14-.36,8.89-.48,2.97-.14,5.62-.21,7.88-.21,6.46,0,12.25.25,17.19.76,4.92.49,9.2,1.02,12.7,1.57,3.98.63,7.51,1.37,10.48,2.18l1.36.37,8.13-22.07.08-.21-2.68.52c-2.3.44-6.83.81-13.46,1.08-6.89.29-15.07.49-24.29.62-9.4.14-19.93.26-31.3.35-11.11.09-22.66.14-34.34.14h-1.54v1.55l.06.97c.54,1.91,1.06,4.28,1.55,7.04.5,2.83.94,6.38,1.3,10.58.37,4.27.64,9.36.82,15.12.18,5.8.28,12.69.28,20.48v89.98c0,7.78-.09,14.67-.28,20.48-.18,5.76-.46,10.82-.82,15.05-.36,4.18-.8,7.72-1.3,10.5-.49,2.77-1.01,5.13-1.55,7.04l-.06,2.51h61.26c.91,0,2.37.02,4.46.07,2.08.05,4.45.09,7.13.14l8.5.13c3.23.05,6.03.12,8.55.21,2.55.08,5.03.18,7.39.28,2.23.09,3.84.18,4.91.27l1.4.12,4.68-26.17-2.34.63c-6.49,1.73-13.74,3.26-21.57,4.53Z"/>
    <path d="M346.31,18.05l.16.68c.06.12.22.48.43,1.39.16.67.24,1.51.24,2.49,0,3.94-.76,7.89-2.25,11.75-1.58,4.1-3.06,7.85-4.4,11.14l-57.76,133.75-59.8-134.85c-2.16-5.05-3.65-9.3-4.41-12.66-.75-3.33-1.14-6.4-1.14-9.13,0-.7.04-1.49.13-2.34.11-1.06.26-1.51.31-1.65l.11-2.67h-40.96v2.65l.36.43c.4.47,1.24,1.72,2.51,3.71,1.26,1.98,2.73,4.49,4.38,7.45,1.59,2.87,3.32,6.14,5.3,9.98,1.84,3.6,3.67,7.43,5.42,11.39l75.43,169.89.03.07h13.06l79.61-176.73c2.9-6.53,5.62-12.12,8.09-16.6,2.42-4.38,4.47-7.43,6.1-9.06l.45-.45v-2.73h-31.42v2.09Z"/>
    <path d="M482.62,198.22h0c-6.74,1.19-14.75,2.25-23.8,3.16-8.6.87-18.12,1.33-28.3,1.37v-83.58c5.57.04,11.53.29,17.69.74,6.57.5,12.83,1.08,18.61,1.72,6.81.76,13.36,1.55,19.46,2.35l1.41.18,5.05-23.62-2.21.34c-4.67.72-10.22,1.37-16.48,1.92-5.28.46-11.83.92-19.45,1.38-7.12.44-15.22.71-24.08.81V32.56l8.65-.47c3.32-.21,6.14-.36,8.89-.48,2.97-.14,5.62-.21,7.88-.21,6.46,0,12.25.25,17.19.76,4.92.49,9.2,1.02,12.7,1.57,3.98.63,7.51,1.36,10.48,2.18l1.36.37,8.13-22.07.08-.21-2.68.52c-2.3.44-6.83.81-13.46,1.08-6.88.28-15.05.49-24.29.62-9.44.14-19.97.26-31.3.35-11.13.09-22.68.14-34.34.14h-1.54v1.55l.06.97c.54,1.9,1.06,4.27,1.55,7.04.5,2.82.94,6.38,1.29,10.58.37,4.27.64,9.36.82,15.12.18,5.8.28,12.69.28,20.48v89.98c0,7.78-.09,14.67-.28,20.48-.18,5.76-.46,10.82-.82,15.05-.36,4.19-.8,7.72-1.29,10.5-.49,2.77-1.01,5.13-1.55,7.04l-.06,2.51h61.26c.94,0,2.44.02,4.46.07,2.06.05,4.4.09,7.05.14l8.58.13c3.22.05,6.01.12,8.55.21,2.48.08,4.89.17,7.39.28,2.23.09,3.84.18,4.91.27l1.4.12,4.68-26.17-2.34.63c-6.48,1.73-13.74,3.26-21.57,4.53Z"/>
    <path d="M688.71,211.93c-1.69-1.11-3.46-2.54-5.25-4.25-1.84-1.75-3.8-3.87-5.82-6.29-2.02-2.43-4.26-5.38-6.63-8.75l-47.44-66.64c4.78-2.29,9.2-5.1,13.16-8.34,4.43-3.63,8.28-7.85,11.43-12.56,3.16-4.71,5.64-10.03,7.38-15.83,1.74-5.78,2.62-12.14,2.62-18.9,0-8.66-1.61-16.53-4.77-23.38-3.17-6.85-7.65-12.73-13.34-17.47-5.66-4.71-12.41-8.34-20.08-10.79-7.64-2.43-16.05-3.67-25-3.67-9.54,0-17.49.45-23.65,1.33-6.04.86-10.87,1.29-14.37,1.29-2.4,0-4.58-.02-6.67-.07-2.17-.04-4.11-.16-5.76-.34l-7.49-.72v1.7l.06.97c.53,1.88,1.06,4.26,1.55,7.1.49,2.84.9,6.39,1.22,10.57.32,4.16.6,9.23.83,15.08.23,5.82.35,12.71.35,20.46v89.98c0,7.85-.12,14.76-.35,20.54-.23,5.74-.5,10.79-.83,15.01-.32,4.18-.73,7.7-1.22,10.49-.49,2.76-1.01,5.13-1.55,7.04l-.06,2.51h36.26v-1.55l-.06-.97c-.54-1.9-1.07-4.27-1.55-7.04-.49-2.79-.91-6.32-1.22-10.49-.32-4.22-.6-9.3-.83-15.08-.23-5.83-.35-12.72-.35-20.47v-29.29c2.15.32,4.26.55,6.3.69,4.82.35,9.84.38,14.52.07,1.82-.12,3.67-.26,5.51-.41l48.42,68.25c1.98,2.8,3.74,5.65,5.22,8.47,1.43,2.74,2.29,4.92,2.54,6.5l.21,1.3h42.8v-3.19l-1.04-.36c-1.7-.59-3.4-1.44-5.05-2.53ZM627.45,71.47c0,8.27-1.09,15.56-3.23,21.68-2.14,6.09-5.16,11.23-9,15.28-3.83,4.05-8.53,7.1-13.99,9.07-7.39,2.7-15.81,3.57-25.74,2.68-2.08-.18-4.16-.48-6.2-.88V30.13c1.78-.57,4.23-1.13,7.29-1.65,3.71-.63,8.74-.94,14.95-.94s11.33,1.05,15.8,3.11c4.45,2.05,8.19,4.97,11.11,8.68,2.94,3.72,5.2,8.35,6.71,13.76,1.52,5.46,2.29,11.65,2.29,18.38Z"/>
    <path d="M945.64,18.8l.11.57c.07.18.21.63.31,1.59.09.83.13,1.64.13,2.4,0,2.53-.49,5.65-1.47,9.28-1,3.71-2.56,8.3-4.64,13.64l-52.35,128.25-54.24-131.68-.03-.08-10.72.68h-.08s-48.57,129.34-48.57,129.34l-50.51-127.62c-1.98-4.87-3.33-9.06-3.99-12.43-.67-3.38-1.01-6.63-1.01-9.65v-1.94c0-.46.08-1.11.28-2.35v-2.09h-41.37v2.66l.37.43c.34.4,1.06,1.39,2.55,3.82,1.22,1.99,2.6,4.47,4.09,7.36,1.5,2.91,3.11,6.23,4.81,9.89,1.66,3.58,3.34,7.42,5.01,11.4l68.09,169.94.03.08h12.47l48.07-127.82,52.64,127.75.03.08h12.56l74.2-176.75c2.86-6.55,5.39-12.06,7.51-16.38,2.09-4.27,4.03-7.4,5.77-9.32l.4-.44v-2.69h-30.45v2.09Z"/>
    <path d="M1030.94,51.97c.23-5.78.5-10.87.83-15.15.31-4.18.73-7.74,1.22-10.56.49-2.76,1.01-5.13,1.55-7.04l.06-2.51h-36.12v1.55l.06.97c.53,1.87,1.03,4.23,1.48,7.01.45,2.82.87,6.38,1.23,10.6.37,4.27.64,9.36.82,15.12.18,5.8.28,12.69.28,20.48v89.98c0,7.78-.09,14.67-.28,20.48-.18,5.76-.46,10.82-.82,15.05-.36,4.17-.77,7.72-1.23,10.53-.46,2.81-.95,5.17-1.48,7.01l-.06,2.51h36.12v-1.55l-.06-.97c-.54-1.91-1.07-4.27-1.55-7.04-.49-2.78-.9-6.31-1.22-10.49-.32-4.23-.6-9.3-.83-15.08-.23-5.83-.35-12.72-.35-20.47v-89.98c0-7.75.12-14.64.35-20.46Z"/>
    <path d="M1148.8,198.22h0c-6.74,1.19-14.75,2.25-23.8,3.16-8.6.87-18.12,1.33-28.3,1.38V72.43c0-7.75.12-14.64.35-20.46.23-5.78.5-10.88.83-15.15.31-4.18.72-7.73,1.22-10.56.49-2.77,1.01-5.14,1.55-7.04l.06-2.51h-36.26v1.55l.06.97c.54,1.91,1.06,4.27,1.55,7.04.5,2.82.94,6.38,1.3,10.58.37,4.27.64,9.36.82,15.12.18,5.82.28,12.71.28,20.48v89.98c0,7.77-.09,14.66-.28,20.48-.18,5.76-.46,10.82-.82,15.05-.36,4.18-.8,7.72-1.3,10.5-.49,2.76-1.01,5.13-1.55,7.04l-.06,2.51h61.26c.94,0,2.44.02,4.46.07,2.06.05,4.4.09,7.05.14l8.58.13c3.22.05,6.01.12,8.55.21,2.48.08,4.89.17,7.39.28,2.23.09,3.84.18,4.91.27l1.4.12,4.68-26.17-2.34.63c-6.48,1.73-13.73,3.26-21.57,4.53Z"/>
    <path d="M1359.2,66.98c-5.42-12.42-12.86-22.62-22.13-30.29-9.25-7.66-20.14-13.25-32.37-16.61-12.15-3.34-25.13-5.03-38.56-5.03-4.89,0-10.28.09-16.02.28l-16.38.55c-5.51.2-10.1.38-14.04.55-3.91.18-6.92.28-8.71.28-1.01,0-2.34-.02-3.96-.07-1.77-.05-3.34-.12-4.81-.21l-7.56-.35v1.62l.06.97c.54,1.9,1.06,4.31,1.55,7.16.5,2.93.94,6.54,1.3,10.73.37,4.27.64,9.4.82,15.25.18,5.9.28,12.84.28,20.62v89.98c0,7.78-.09,14.67-.28,20.48-.18,5.76-.46,10.82-.82,15.05-.36,4.18-.8,7.72-1.29,10.5-.49,2.77-1.01,5.13-1.55,7.04l-.06,2.51h1.54c2.58,0,6.1.11,10.77.34,4.51.22,9.37.47,14.86.76,5.18.27,10.46.53,15.7.76,5.27.23,9.78.34,13.4.34,10.35,0,20.53-.84,30.26-2.51,9.75-1.67,19.04-4.36,27.64-7.98,8.61-3.63,16.59-8.33,23.72-13.96,7.15-5.66,13.38-12.56,18.51-20.49,5.13-7.93,9.17-17.19,12.01-27.52,2.83-10.31,4.27-22.07,4.27-34.96,0-18.01-2.74-33.42-8.15-45.81ZM1336.2,117.08c0,12.54-1.19,23.54-3.55,32.72-2.35,9.16-5.61,17.08-9.69,23.55-4.08,6.45-8.88,11.78-14.28,15.83-5.44,4.09-11.31,7.35-17.45,9.67-6.14,2.34-12.63,3.96-19.28,4.81-6.64.87-13.25,1.3-19.64,1.3-1.6,0-3.53-.05-5.75-.14-2.26-.09-4.62-.2-7.03-.35-2.27-.12-4.55-.31-6.77-.55-1.32-.14-2.63-.28-3.89-.44-.33-5.37-.63-12.05-.88-19.84-.27-8.42-.48-17.35-.62-26.52-.14-9.37-.26-18.44-.35-26.95-.09-8.78-.14-16.31-.14-22.37,0-3.01.02-6.42.07-10.14l.28-24.81c.05-4.32.12-8.59.21-12.7.18-9.23.35-18.75.53-28.57,1.33-.08,2.93-.21,5.32-.41,2.57-.22,5.4-.4,8.65-.55l9.33-.41c3.01-.14,5.82-.21,8.36-.21,12.36,0,23.45,1.94,32.94,5.76,9.45,3.81,17.48,9.46,23.88,16.8,6.42,7.36,11.36,16.54,14.69,27.3,3.35,10.82,5.05,23.34,5.05,37.21Z"/>
  </g>
  <g>
    <path d="M1621,142.44v.07c.66,2.13,1.22,4.47,1.68,6.96.46,2.5.88,5.52,1.25,8.99.37,3.47.65,7.62.84,12.34.19,4.76.28,10.44.28,16.89v5.45c0,1.41-.89,3.02-2.65,4.78s-4.46,3.46-7.95,4.97c-3.51,1.52-7.86,2.81-12.94,3.82-5.08,1.02-10.93,1.53-17.41,1.53-14.61,0-27.56-2.55-38.51-7.59-10.95-5.03-20.2-12.08-27.49-20.95-7.3-8.87-12.88-19.51-16.57-31.61-3.7-12.11-5.57-25.43-5.57-39.59,0-12.85,1.97-24.47,5.85-34.54,3.88-10.07,9.38-18.68,16.35-25.61s15.42-12.28,25.12-15.93c9.7-3.65,20.53-5.5,32.17-5.5,6,0,12.02.59,17.9,1.74,5.87,1.16,11.57,2.78,16.93,4.81,5.37,2.04,10.48,4.47,15.18,7.24,4.71,2.77,8.93,5.81,12.53,9.05l.13.11,1.47-.73-9.57-26.04-.04-.11-.11-.04c-3.8-1.39-7.88-2.66-12.1-3.78-4.22-1.11-8.67-2.08-13.22-2.87-4.56-.79-9.22-1.4-13.84-1.82-4.64-.42-9.25-.63-13.71-.63-11.51,0-22.36,1.34-32.25,3.99-9.89,2.65-19.07,6.39-27.29,11.13-8.22,4.74-15.64,10.41-22.05,16.87-6.41,6.46-11.88,13.64-16.24,21.35-4.37,7.71-7.73,15.95-10.01,24.5-2.28,8.54-3.43,17.35-3.43,26.18,0,15.61,2.78,29.99,8.26,42.76,5.48,12.77,13.32,23.87,23.31,32.97,9.98,9.1,22.11,16.24,36.04,21.21,13.93,4.97,29.56,7.49,46.45,7.49,7.51,0,14.64-.54,21.2-1.61,6.55-1.07,12.74-2.6,18.4-4.55,5.67-1.95,11.02-4.28,15.89-6.93,4.88-2.65,9.47-5.59,13.66-8.76.87-.78,1.44-1.76,1.68-2.93.24-1.14.35-2.23.35-3.26v-5.73c0-6.42.09-12.13.28-16.96.18-4.86.47-9.15.84-12.76.37-3.59.81-6.76,1.32-9.4.5-2.62,1.04-4.94,1.6-6.89v-.88s-34,0-34,0v.81Z"/>
    <path d="M1685.37,194.7c-1.37-1.37-2.99-2.46-4.83-3.26-1.84-.8-3.87-1.21-6.03-1.21s-4.05.41-5.89,1.21c-1.84.8-3.46,1.9-4.83,3.26s-2.47,2.99-3.26,4.83c-.8,1.84-1.21,3.82-1.21,5.89s.41,4.2,1.21,6.04c.8,1.84,1.9,3.46,3.26,4.83,1.36,1.36,2.98,2.46,4.83,3.26,1.84.8,3.83,1.21,5.89,1.21,4.33,0,8.01-1.48,10.93-4.4,2.92-2.92,4.4-6.6,4.4-10.93,0-2.07-.41-4.05-1.21-5.89-.8-1.83-1.9-3.46-3.26-4.83Z"/>
    <path d="M1786.38,200.57c-6.87,1.21-14.99,2.29-24.14,3.21-9.09.92-19.19,1.39-30.03,1.4v-87.06c6.11,0,12.59.27,19.28.77,6.72.51,13.06,1.09,18.84,1.74,6.79.76,13.41,1.56,19.69,2.37l.23.03,4.45-20.83-.36.06c-4.79.74-10.43,1.4-16.74,1.95-5.35.46-11.97.93-19.68,1.4-7.62.46-16.27.74-25.71.83V30.68c3.36-.18,6.68-.36,9.96-.55,2.94-.19,5.96-.35,9-.49,3.08-.14,5.78-.21,8.02-.21,6.56,0,12.45.26,17.5.77,5.04.51,9.39,1.05,12.9,1.6,4.07.65,7.68,1.4,10.73,2.23l.22.06,7.08-19.2-.43.08c-2.39.46-7.03.83-13.79,1.11-6.75.28-15.02.49-24.57.63-9.69.14-20.33.26-31.63.35-11.44.09-23.12.14-34.7.14h-.25v.88c.56,1.93,1.1,4.37,1.61,7.24.51,2.87.95,6.5,1.32,10.8.37,4.3.65,9.47.84,15.35.19,5.9.28,12.88.28,20.73v90.91c0,7.85-.09,14.83-.28,20.73-.19,5.88-.47,11.02-.84,15.28-.37,4.25-.82,7.86-1.32,10.73-.51,2.87-1.05,5.3-1.6,7.24v.88s60.57,0,60.57,0c.98,0,2.55.02,4.53.07,2.1.05,4.49.09,7.19.14,2.7.05,5.56.09,8.59.14,2.99.04,5.9.12,8.65.21,2.75.09,5.24.19,7.47.28,2.21.09,3.89.18,5.02.28l.23.02,4.16-23.23-.38.1c-6.57,1.76-13.94,3.31-21.9,4.6Z"/>
    <path d="M1841.33,194.7c-1.37-1.37-2.99-2.46-4.83-3.26-1.84-.8-3.87-1.21-6.03-1.21s-4.05.41-5.89,1.21c-1.84.8-3.46,1.9-4.83,3.26s-2.47,2.99-3.26,4.83c-.8,1.84-1.21,3.82-1.21,5.89s.41,4.2,1.21,6.04c.8,1.84,1.9,3.46,3.26,4.83,1.36,1.36,2.98,2.46,4.83,3.26,1.84.8,3.83,1.21,5.89,1.21,4.33,0,8.01-1.48,10.93-4.4,2.92-2.92,4.4-6.6,4.4-10.93,0-2.07-.41-4.05-1.21-5.89-.8-1.83-1.9-3.46-3.26-4.83Z"/>
    <path d="M2053.96,213.11c-1.29-2.02-2.79-4.55-4.46-7.53-1.68-2.98-3.49-6.39-5.37-10.11-1.91-3.77-3.76-7.69-5.51-11.65l-75.83-170.64-.07-.15h-11.5l-80.08,177.64c-2.97,6.77-5.74,12.47-8.23,16.95-2.49,4.48-4.59,7.63-6.25,9.38l-.07.07v.91h28.99v-.88l-.04-.06c-.17-.25-.35-.76-.52-1.52-.18-.76-.27-1.75-.27-2.95,0-4.14.79-8.29,2.36-12.34,1.56-4.04,3.06-7.85,4.46-11.3l16-36.72c5.44-.18,11.61-.27,18.34-.27h49.36c8.51,0,15.45.09,20.64.27l16.83,37.84c2.22,5.17,3.74,9.55,4.52,13.01.78,3.46,1.18,6.66,1.18,9.51,0,.72-.05,1.56-.14,2.49-.09.9-.23,1.59-.4,2.03l-.02.9h38.76v-.9l-.06-.07c-.46-.55-1.34-1.85-2.63-3.88ZM1989.97,138.85c-4.01.09-8.48.16-13.31.2-5.03.05-10.26.09-15.71.14-5.45.05-11.01.09-16.69.14-5.46.05-11.05.07-16.62.07h-14.7l38.17-88.36,38.86,87.81Z"/>
    <path d="M2088.25,194.7c-1.37-1.37-2.99-2.46-4.83-3.26-1.84-.8-3.87-1.21-6.03-1.21s-4.05.41-5.89,1.21c-1.84.8-3.46,1.9-4.83,3.26s-2.47,2.99-3.26,4.83c-.8,1.84-1.21,3.82-1.21,5.89s.41,4.2,1.21,6.04c.8,1.84,1.9,3.46,3.26,4.83,1.36,1.36,2.98,2.46,4.83,3.26,1.84.8,3.83,1.21,5.89,1.21,4.33,0,8.01-1.48,10.93-4.4,2.92-2.92,4.4-6.6,4.4-10.93,0-2.07-.41-4.05-1.21-5.89-.8-1.83-1.9-3.46-3.26-4.83Z"/>
    <path d="M2261.45,214.22c-1.75-1.15-3.59-2.64-5.48-4.44-1.89-1.8-3.9-3.97-5.98-6.47-2.08-2.5-4.36-5.5-6.76-8.92l-48.84-68.6c5.28-2.4,10.14-5.4,14.44-8.92,4.37-3.58,8.17-7.76,11.29-12.41,3.12-4.65,5.57-9.91,7.29-15.64,1.72-5.72,2.59-12.02,2.59-18.71,0-8.56-1.58-16.32-4.7-23.08-3.12-6.75-7.54-12.54-13.12-17.19-5.58-4.65-12.26-8.24-19.84-10.66-7.58-2.42-15.95-3.64-24.86-3.64-9.55,0-17.53.45-23.71,1.33-6.14.88-11.09,1.32-14.7,1.32-2.39,0-4.67-.02-6.77-.07-2.18-.05-4.17-.16-5.92-.35l-6.14-.58v.9c.56,1.93,1.1,4.39,1.61,7.3.51,2.91.93,6.54,1.25,10.8.32,4.26.6,9.4.84,15.28.23,5.91.35,12.88.35,20.73v90.91c0,7.94-.12,14.94-.35,20.8-.23,5.84-.51,10.96-.84,15.21-.33,4.26-.75,7.87-1.25,10.73-.51,2.87-1.05,5.3-1.6,7.24v.88s34,0,34,0v-.88c-.57-1.95-1.1-4.38-1.61-7.24-.51-2.86-.93-6.47-1.25-10.73-.33-4.26-.61-9.4-.84-15.28-.23-5.87-.35-12.85-.35-20.73v-31.12c2.59.44,5.21.75,7.76.93,4.83.35,9.84.38,14.49.07,2.15-.14,4.26-.3,6.29-.48l49.35,69.57c2.04,2.87,3.84,5.79,5.36,8.7,1.52,2.89,2.42,5.24,2.7,6.97l.03.21h40.82v-.99l-.17-.06c-1.84-.64-3.65-1.55-5.39-2.7ZM2163.98,25.53c6.26,0,11.82,1.1,16.51,3.26,4.69,2.16,8.63,5.24,11.71,9.14,3.08,3.91,5.44,8.74,7.01,14.37,1.57,5.63,2.37,12,2.37,18.92,0,8.5-1.12,16.01-3.34,22.33-2.21,6.32-5.37,11.67-9.37,15.9-4,4.23-8.93,7.43-14.64,9.5-5.72,2.08-12.13,3.13-19.05,3.13-2.4,0-4.93-.12-7.52-.35-2.5-.22-5.01-.61-7.45-1.14V28.53c1.93-.71,4.77-1.39,8.45-2.02,3.79-.65,8.95-.97,15.32-.97Z"/>
    <path d="M2300.52,199.53c-.8-1.83-1.9-3.46-3.26-4.83-1.37-1.37-2.99-2.46-4.83-3.26-1.84-.8-3.87-1.21-6.03-1.21s-4.05.41-5.89,1.21c-1.84.8-3.46,1.9-4.83,3.26s-2.47,2.99-3.26,4.83c-.8,1.84-1.21,3.82-1.21,5.89s.41,4.2,1.21,6.04c.8,1.84,1.9,3.46,3.26,4.83,1.36,1.36,2.98,2.46,4.83,3.26,1.84.8,3.83,1.21,5.89,1.21,4.33,0,8.01-1.48,10.93-4.4,2.92-2.92,4.4-6.6,4.4-10.93,0-2.07-.41-4.05-1.21-5.89Z"/>
  </g>
</svg>