<?xml version="1.0" encoding="UTF-8"?>
<svg id="_图层_1" data-name="图层 1" xmlns="http://www.w3.org/2000/svg" viewBox="0 0 1883 235.31">
  <g>
    <path d="M1720.33,180.95h-.01c-1.01-7.83-1.33-15.45-1.48-22.11,3.82-.11,7.25-.19,9.61-.22,8.74-.19,16.02-.19,23.49,1.42l2.26.48v-19.29l-2.25.47c-7.42,1.58-15.02,1.83-22.36,2.06l-1.6.05c-2.41.1-5.79.25-9.37.39-.15-9-.24-18.58-.26-28.54,5.57.05,12.07.14,19.33.25-.21.97-.44,1.85-.68,2.71l-.68,2.37h26.03l-.68-2.37c-2.4-8.37-2.46-16.99-2.52-25.33v-.16c-.29-15.75-.16-33.67.39-51.82.07-1.75.11-3.67.15-5.68.14-6.72.29-14.34,1.96-19.83l.75-2.41h-26.08l.7,2.39c.1.35.2.71.3,1.08-8.55.1-14.8.19-20.19.26-10.12.14-17.43.24-31.4.29h-11.05c.14-.66.27-1.24.42-1.76l.7-2.41-26.09.31.76,2.4c1.35,4.31,1.79,8.7,2.03,12.41.62,12.06,1.31,25.98,1.7,38.62.2,6.39.41,19.38.42,25.74v.15c.12,8.65.24,16.83-1.99,25.18l-.63,2.4,26.03-.65-.73-2.36c-.17-.55-.34-1.12-.5-1.73,1.32-.02,2.71-.05,4.16-.07,3.02-.05,7.83-.1,15.5-.1.05,9.91.06,21.63.01,29.4-5.07.12-10.83.25-16.52.27-1.84-.02-3.67,0-5.51,0-6.23.05-12.11.1-18.05-1.17l-2.25-.47v19.28l2.25-.47c5.54-1.16,11.24-1.34,16.74-1.53,2.37-.07,4.84-.16,7.25-.32l16.01-.78c-.1,7.21-.41,15.45-1.54,23.79-1.63.19-3.27.39-4.9.58-12.77,1.52-25.95,3.1-38.3,2.55l-1.91-.09-.36,18.56,1.96-.06c10.66-.35,20.53-2.16,29.27-3.77,7.98-1.58,20.43-4.08,33.64-6.72,17.97-3.6,37.31-7.48,48.51-9.68l1.79-.35-1.33-7.73-42.88,4.15ZM1718.82,53.6c.07-7.87.16-16.72.92-24.51,3.12.04,6,.14,8.96.29,3.31.17,6.7.42,10.11.76.27,9.38.55,19.24.71,28.68-6.74.2-13.71.36-20.76.5.02-1.83.05-3.74.06-5.71ZM1718.57,72.79c6.87.06,13.96.16,21.11.27,0,6.91-.06,15.39-.15,20.07h-.01c-.02,3.15-.05,5.85-.15,8.55-6.8.2-13.86.37-21.02.5.02-9.55.1-19.42.22-29.4ZM1673.49,40.89c.04-1.74.04-3.64.04-5.63,0-1.44,0-2.92.01-4.43,4.98-.36,9.93-.67,14.74-.93,2.04-.11,3.98-.21,5.87-.31.4,3.63.67,7.49.83,11.99l.09,3.68c.12,4.69.24,9.47.36,14.31-.77,0-1.54.01-2.31.01h.01c-4.97.04-9.92.02-14.8.01-1.81-.05-3.42-.09-4.84-.12-.05-7.31-.04-13.1,0-18.58ZM1696.1,102.45c-.99,0-1.98.02-2.97.02-4.97.01-9.92.02-14.8,0-1.34-.04-2.56-.06-3.68-.09-.25-3.48-.35-6.97-.45-10.13-.19-4.51-.42-12.67-.56-19.35,2.21-.05,4.64-.1,7.27-.14,3.19-.05,7.72-.1,14.84-.1.26,11.61.44,21.17.55,29.78h-.2Z"/>
    <path d="M1468.6,108.96l-.05-.02c-11.14-9.5-23.64-17.27-37.18-23.11.1-9.86.2-18.64.32-26.77.45.02.91.05,1.38.09,7.28.51,14.67,1.58,21.94,3.19l1.55.35,7.52-18.97-3.19.47c-.71.1-1.73.25-2.96.37-3.16.35-5.47.4-8.17.47h-.26c-1.11.04-2.21.07-3.32.1-1.67.05-3.34.11-5.01.14-3.49.05-6.54.1-9.27.15v-1.52c.16-14.06.32-30.01,2.21-41.74L1434.46,0h-27.21l.35,2.16c1.89,11.82,2.06,27.73,2.2,41.76l.02,1.88c-3.97.05-8.34.09-14.02.11-7.54.04-15.13.04-22.56,0h-1.88v2.96l9.99,12.37,1.01-.1c5.22-.53,10.52-.99,15.74-1.37,4.5-.32,8.13-.57,11.92-.73.02,1.76.05,3.55.07,5.34l-12.09-1.29-.1,1.98c-.82,16.63-3.22,33.85-7.15,51.17-3.84,16.77-9.83,33.27-17.81,49.09l-.83,1.65,1.64.85c2.33,1.19,3.79,1.61,4.39,1.24l.34-.2.22-.32c13.21-18.94,23.88-41.14,31.77-66.13.07,11.36.1,22.59.1,33.46-.12,6.65-.12,13.62-.12,20.37-.01,20.04-.04,40.76-2.83,59.81l-.31,2.14h27.16l-.32-2.14c-2.62-17.55-2.71-35.46-2.78-52.78v-.57c-.14-13.67-.21-40.72-.14-53.59.02-3.03.05-6.07.07-9.11v-.15c7.08,7.25,13.11,15.18,17.99,23.63l1.04,1.81,20.06-14.83-1.79-1.53Z"/>
    <polygon points="1853.85 79.45 1853.86 79.45 1853.86 79.45 1853.85 79.45"/>
    <path d="M1853.86,79.45l.02,2.11c.04,2.54,0,5.22-.14,8.34-7.22.41-14.57.41-21.74.37l8.49-8.78-1.9-1.23c-1.89-1.23-3.9-2.54-6-3.9,18.47-17.73,32.04-39.42,39.32-62.88l.62-2.01-29.93-5.43-.19,2.03c-.11,1.28-.26,2.62-.45,4.06h-67.48v4.71l-3.14,16.37,2.85-.73c7-1.79,14.13-3.23,21.22-4.26,9.09-1.33,16.16-1.74,20.86-2.01,4.43-.26,9.21-.41,13.86-.46,1.91-.01,3.8-.01,5.66,0l1.11-.09h2.5c-3.13,12.39-8.39,24.65-15.29,35.57-1.4,2.25-2.91,4.51-4.5,6.74-13.37-8.58-24.1-15.29-31.88-19.96l-1.33-.8-6.92,7.84,11.83,11.5c5.31,5.06,15.76,15.71,23.53,23.64-4.09-.09-8.56-.1-13.26-.1-10.99-.01-22.35-.04-31.16-1.08l-2.09-.25v14.05l2.13-.31c5.71-.82,11.57-.87,17.24-.91,2.01-.01,4.01-.02,6-.07,3.59-.05,7.59-.1,11.77-.14l-.02,46.31c0,7.91-.02,19.85-2.8,32.85l-.05.26c-.92,4.33-2.31,10.85-5.72,18.41-4.9,10.84-12.54,20.63-22.73,29.11l-1.45,1.21,4.93,5.78,1.35-.81c8.22-4.89,15.9-10.57,22.82-16.87,7.05-6.41,15.03-13.69,21.62-25.79.26-.48,6.56-12.17,8.92-26.28.34-2,1.43-9.25,1.44-18.67v-45.64c2.4,0,4.7.02,6.86.06,4.01.01,8.15.04,12.24.21-1.58,14.39-5.03,28.53-10.25,42.06l-.62,1.62,9.38,4.4.91-1.26c13.88-19.33,23.88-40.77,29.7-63.7l.52-2.08-28.64-3.12Z"/>
    <path d="M1584.06,184.38h-.02c-8.3-4.45-16.01-10.35-23.54-18.05,25.15-23.88,42.51-53.71,50.27-86.37l.46-1.93-26.26-4.59-.29,1.88c-.15,1.01-.34,2.01-.51,3.02h-1.31c-4.05.09-12.07.14-15.89.09-6-.09-10.98-.19-15.56-.35,2.61-2.05,5.39-4.31,8.05-6.7,15.66-13.87,27.38-33.24,34.8-57.59l.61-2-29.89-5.42-.21,1.99c-.22,2.08-.52,4.28-.88,6.56-22.1-.06-44.74.31-67.22,1.09h-.88c-10.25-.05-20.3-.32-29.84-.83l-1.63-.09-4,20.84,2.85-.73c6.44-1.65,13-3.01,19.55-4.01.4,9.15.81,19.55.93,29.27.17,10.8-.09,25.17-.65,35.76-.35,5.85-1.43,17.77-2.15,23.62-3.39,29.61-13.06,58.98-29.55,89.79l-.81,1.52,7.64,4.9,1.06-1.08c21.12-21.58,35.28-51.77,43.22-92.19,7.41,13.92,16.63,26.84,27.47,38.46,1.47,1.67,3.01,3.36,4.61,5.05-17.69,15.85-38.52,28.33-61.95,37.14l-1.77.66,4.03,10.42,1.65-.48c26.23-7.74,49.92-19.83,70.43-35.92,9.65,8.22,19.78,14.63,30.11,19.08,14.54,6.48,30.28,10.27,46.77,11.27l1.75.11,1.22-10.17-1.79-.27c-14.58-2.18-28.7-6.92-40.88-13.74ZM1540.07,140.74c-11.3-16.73-19.3-35.9-23.13-55.46l-.36-1.86-8.97,1.95c1.35-16.41,1.85-34.75,1.49-54.59h.01c16.83-.46,34.11-.67,51.51-.67-1.4,5.06-3.08,9.87-4.98,14.34-4.92,11.87-13.35,21.48-22.26,31.66l-1.42,1.63,1.21,1.07v16.85l2.42-.77c3.67-1.17,7.35-1.24,11.24-1.32,1.42-.02,2.83-.05,4.21-.14,4.71-.16,9.76-.27,15.91-.36,3.39-.04,9.6-.01,13.78.05-6.14,21.49-17.29,41.84-32.37,59.1-2.66-3.47-5.38-7.25-8.29-11.48Z"/>
  </g>
  <g>
    <path d="M84.85,199.25h0c-6.74,1.19-14.75,2.25-23.8,3.16-8.59.87-18.11,1.33-28.3,1.38v-83.58c5.58.04,11.53.29,17.69.75,6.56.5,12.82,1.08,18.61,1.72,6.78.76,13.32,1.55,19.46,2.35l1.41.18,5.05-23.62-2.21.34c-4.67.72-10.22,1.37-16.48,1.92-5.28.46-11.83.92-19.45,1.38-7.12.44-15.22.71-24.08.81V33.59l8.65-.47c3.31-.21,6.14-.36,8.89-.48,2.97-.14,5.62-.21,7.88-.21,6.46,0,12.25.25,17.19.76,4.92.49,9.2,1.02,12.7,1.57,3.98.63,7.51,1.37,10.48,2.18l1.36.37,8.13-22.07.08-.21-2.68.52c-2.3.44-6.83.81-13.46,1.08-6.89.29-15.07.49-24.29.62-9.4.14-19.93.26-31.3.35-11.11.09-22.66.14-34.34.14H.5v1.55l.06.97c.54,1.91,1.06,4.28,1.55,7.04.5,2.83.94,6.38,1.3,10.58.37,4.27.64,9.36.82,15.12.18,5.8.28,12.69.28,20.48v89.98c0,7.78-.09,14.67-.28,20.48-.18,5.76-.46,10.82-.82,15.05-.36,4.18-.8,7.72-1.3,10.5-.49,2.77-1.01,5.13-1.55,7.04l-.06,2.51h61.26c.91,0,2.37.02,4.46.07,2.08.05,4.45.09,7.13.14l8.5.13c3.23.05,6.03.12,8.55.21,2.55.08,5.03.18,7.39.28,2.23.09,3.84.18,4.91.27l1.4.12,4.68-26.17-2.34.63c-6.49,1.73-13.74,3.26-21.57,4.53Z"/>
    <path d="M299.34,19.83l.16.68c.06.12.22.48.43,1.39.16.67.24,1.51.24,2.49,0,3.94-.76,7.89-2.25,11.75-1.58,4.1-3.06,7.85-4.4,11.14l-57.76,133.75-59.8-134.85c-2.16-5.05-3.65-9.3-4.41-12.66-.75-3.33-1.14-6.4-1.14-9.13,0-.7.04-1.49.13-2.34.11-1.06.26-1.51.31-1.65l.11-2.67h-40.96v2.65l.36.43c.4.47,1.24,1.72,2.51,3.71,1.26,1.98,2.73,4.49,4.38,7.45,1.59,2.87,3.32,6.14,5.3,9.98,1.84,3.6,3.67,7.43,5.42,11.39l75.43,169.89.03.07h13.06l79.61-176.73c2.9-6.53,5.62-12.12,8.09-16.6,2.42-4.38,4.47-7.43,6.1-9.06l.45-.45v-2.73h-31.42v2.09Z"/>
    <path d="M435.64,200h0c-6.74,1.19-14.75,2.25-23.8,3.16-8.6.87-18.12,1.33-28.3,1.37v-83.58c5.57.04,11.53.29,17.69.74,6.57.5,12.83,1.08,18.61,1.72,6.81.76,13.36,1.55,19.46,2.35l1.41.18,5.05-23.62-2.21.34c-4.67.72-10.22,1.37-16.48,1.92-5.28.46-11.83.92-19.45,1.38-7.12.44-15.22.71-24.08.81V34.34l8.65-.47c3.32-.21,6.14-.36,8.89-.48,2.97-.14,5.62-.21,7.88-.21,6.46,0,12.25.25,17.19.76,4.92.49,9.2,1.02,12.7,1.57,3.98.63,7.51,1.36,10.48,2.18l1.36.37,8.13-22.07.08-.21-2.68.52c-2.3.44-6.83.81-13.46,1.08-6.88.28-15.05.49-24.29.62-9.44.14-19.97.26-31.3.35-11.13.09-22.68.14-34.34.14h-1.54v1.55l.06.97c.54,1.9,1.06,4.27,1.55,7.04.5,2.82.94,6.38,1.29,10.58.37,4.27.64,9.36.82,15.12.18,5.8.28,12.69.28,20.48v89.98c0,7.78-.09,14.67-.28,20.48-.18,5.76-.46,10.82-.82,15.05-.36,4.19-.8,7.72-1.29,10.5-.49,2.77-1.01,5.13-1.55,7.04l-.06,2.51h61.26c.94,0,2.44.02,4.46.07,2.06.05,4.4.09,7.05.14l8.58.13c3.22.05,6.01.12,8.55.21,2.48.08,4.89.17,7.39.28,2.23.09,3.84.18,4.91.27l1.4.12,4.68-26.17-2.34.63c-6.48,1.73-13.74,3.26-21.57,4.53Z"/>
    <path d="M641.74,213.7c-1.69-1.11-3.46-2.54-5.25-4.25-1.84-1.75-3.8-3.87-5.82-6.29-2.02-2.43-4.26-5.38-6.63-8.75l-47.44-66.64c4.78-2.29,9.2-5.1,13.16-8.34,4.43-3.63,8.28-7.85,11.43-12.56,3.16-4.71,5.64-10.03,7.38-15.83,1.74-5.78,2.62-12.14,2.62-18.9,0-8.66-1.61-16.53-4.77-23.38-3.17-6.85-7.65-12.73-13.34-17.47-5.66-4.71-12.41-8.34-20.08-10.79-7.64-2.43-16.05-3.67-25-3.67-9.54,0-17.49.45-23.65,1.33-6.04.86-10.87,1.29-14.37,1.29-2.4,0-4.58-.02-6.67-.07-2.17-.04-4.11-.16-5.76-.34l-7.49-.72v1.7l.06.97c.53,1.88,1.06,4.26,1.55,7.1.49,2.84.9,6.39,1.22,10.57.32,4.16.6,9.23.83,15.08.23,5.82.35,12.71.35,20.46v89.98c0,7.85-.12,14.76-.35,20.54-.23,5.74-.5,10.79-.83,15.01-.32,4.18-.73,7.7-1.22,10.49-.49,2.76-1.01,5.13-1.55,7.04l-.06,2.51h36.26v-1.55l-.06-.97c-.54-1.9-1.07-4.27-1.55-7.04-.49-2.79-.91-6.32-1.22-10.49-.32-4.22-.6-9.3-.83-15.08-.23-5.83-.35-12.72-.35-20.47v-29.29c2.15.32,4.26.55,6.3.69,4.82.35,9.84.38,14.52.07,1.82-.12,3.67-.26,5.51-.41l48.42,68.25c1.98,2.8,3.74,5.65,5.22,8.47,1.43,2.74,2.29,4.92,2.54,6.5l.21,1.3h42.8v-3.19l-1.04-.36c-1.7-.59-3.4-1.44-5.05-2.53ZM580.47,73.24c0,8.27-1.09,15.56-3.23,21.68-2.14,6.09-5.16,11.23-9,15.28-3.83,4.05-8.53,7.1-13.99,9.07-7.39,2.7-15.81,3.57-25.74,2.68-2.08-.18-4.16-.48-6.2-.88V31.91c1.78-.57,4.23-1.13,7.29-1.65,3.71-.63,8.74-.94,14.95-.94s11.33,1.05,15.8,3.11c4.45,2.05,8.19,4.97,11.11,8.68,2.94,3.72,5.2,8.35,6.71,13.76,1.52,5.46,2.29,11.65,2.29,18.38Z"/>
    <path d="M898.66,20.58l.11.57c.07.18.21.63.31,1.59.09.83.13,1.64.13,2.4,0,2.53-.49,5.65-1.47,9.28-1,3.71-2.56,8.3-4.64,13.64l-52.35,128.25-54.24-131.68-.03-.08-10.72.68h-.08s-48.57,129.34-48.57,129.34l-50.51-127.62c-1.98-4.87-3.33-9.06-3.99-12.43-.67-3.38-1.01-6.63-1.01-9.65v-1.94c0-.46.08-1.11.28-2.35v-2.09h-41.37v2.66l.37.43c.34.4,1.06,1.39,2.55,3.82,1.22,1.99,2.6,4.47,4.09,7.36,1.5,2.91,3.11,6.23,4.81,9.89,1.66,3.58,3.34,7.42,5.01,11.4l68.09,169.94.03.08h12.47l48.07-127.82,52.64,127.75.03.08h12.56l74.2-176.75c2.86-6.55,5.39-12.06,7.51-16.38,2.09-4.27,4.03-7.4,5.77-9.32l.4-.44v-2.69h-30.45v2.09Z"/>
    <path d="M983.97,53.75c.23-5.78.5-10.87.83-15.15.31-4.18.73-7.74,1.22-10.56.49-2.76,1.01-5.13,1.55-7.04l.06-2.51h-36.12v1.55l.06.97c.53,1.87,1.03,4.23,1.48,7.01.45,2.82.87,6.38,1.23,10.6.37,4.27.64,9.36.82,15.12.18,5.8.28,12.69.28,20.48v89.98c0,7.78-.09,14.67-.28,20.48-.18,5.76-.46,10.82-.82,15.05-.36,4.17-.77,7.72-1.23,10.53-.46,2.81-.95,5.17-1.48,7.01l-.06,2.51h36.12v-1.55l-.06-.97c-.54-1.91-1.07-4.27-1.55-7.04-.49-2.78-.9-6.31-1.22-10.49-.32-4.23-.6-9.3-.83-15.08-.23-5.83-.35-12.72-.35-20.47v-89.98c0-7.75.12-14.64.35-20.46Z"/>
    <path d="M1101.83,200h0c-6.74,1.19-14.75,2.25-23.8,3.16-8.6.87-18.12,1.33-28.3,1.38V74.21c0-7.75.12-14.64.35-20.46.23-5.78.5-10.88.83-15.15.31-4.18.72-7.73,1.22-10.56.49-2.77,1.01-5.14,1.55-7.04l.06-2.51h-36.26v1.55l.06.97c.54,1.91,1.06,4.27,1.55,7.04.5,2.82.94,6.38,1.3,10.58.37,4.27.64,9.36.82,15.12.18,5.82.28,12.71.28,20.48v89.98c0,7.77-.09,14.66-.28,20.48-.18,5.76-.46,10.82-.82,15.05-.36,4.18-.8,7.72-1.3,10.5-.49,2.76-1.01,5.13-1.55,7.04l-.06,2.51h61.26c.94,0,2.44.02,4.46.07,2.06.05,4.4.09,7.05.14l8.58.13c3.22.05,6.01.12,8.55.21,2.48.08,4.89.17,7.39.28,2.23.09,3.84.18,4.91.27l1.4.12,4.68-26.17-2.34.63c-6.48,1.73-13.73,3.26-21.57,4.53Z"/>
    <path d="M1312.22,68.76c-5.42-12.42-12.86-22.62-22.13-30.29-9.25-7.66-20.14-13.25-32.37-16.61-12.15-3.34-25.13-5.03-38.56-5.03-4.89,0-10.28.09-16.02.28l-16.38.55c-5.51.2-10.1.38-14.04.55-3.91.18-6.92.28-8.71.28-1.01,0-2.34-.02-3.96-.07-1.77-.05-3.34-.12-4.81-.21l-7.56-.35v1.62l.06.97c.54,1.9,1.06,4.31,1.55,7.16.5,2.93.94,6.54,1.3,10.73.37,4.27.64,9.4.82,15.25.18,5.9.28,12.84.28,20.62v89.98c0,7.78-.09,14.67-.28,20.48-.18,5.76-.46,10.82-.82,15.05-.36,4.18-.8,7.72-1.29,10.5-.49,2.77-1.01,5.13-1.55,7.04l-.06,2.51h1.54c2.58,0,6.1.11,10.77.34,4.51.22,9.37.47,14.86.76,5.18.27,10.46.53,15.7.76,5.27.23,9.78.34,13.4.34,10.35,0,20.53-.84,30.26-2.51,9.75-1.67,19.04-4.36,27.64-7.98,8.61-3.63,16.59-8.33,23.72-13.96,7.15-5.66,13.38-12.56,18.51-20.49,5.13-7.93,9.17-17.19,12.01-27.52,2.83-10.31,4.27-22.07,4.27-34.96,0-18.01-2.74-33.42-8.15-45.81ZM1289.23,118.86c0,12.54-1.19,23.54-3.55,32.72-2.35,9.16-5.61,17.08-9.69,23.55-4.08,6.45-8.88,11.78-14.28,15.83-5.44,4.09-11.31,7.35-17.45,9.67-6.14,2.34-12.63,3.96-19.28,4.81-6.64.87-13.25,1.3-19.64,1.3-1.6,0-3.53-.05-5.75-.14-2.26-.09-4.62-.2-7.03-.35-2.27-.12-4.55-.31-6.77-.55-1.32-.14-2.63-.28-3.89-.44-.33-5.37-.63-12.05-.88-19.84-.27-8.42-.48-17.35-.62-26.52-.14-9.37-.26-18.44-.35-26.95-.09-8.78-.14-16.31-.14-22.37,0-3.01.02-6.42.07-10.14l.28-24.81c.05-4.32.12-8.59.21-12.7.18-9.23.35-18.75.53-28.57,1.33-.08,2.93-.21,5.32-.41,2.57-.22,5.4-.4,8.65-.55l9.33-.41c3.01-.14,5.82-.21,8.36-.21,12.36,0,23.45,1.94,32.94,5.76,9.45,3.81,17.48,9.46,23.88,16.8,6.42,7.36,11.36,16.54,14.69,27.3,3.35,10.82,5.05,23.34,5.05,37.21Z"/>
  </g>
</svg>