<?xml version="1.0" encoding="UTF-8"?>
<svg xmlns="http://www.w3.org/2000/svg" width="64" height="64" viewBox="0 0 64 64" role="img" aria-label="EVERWILD favicon">
  <circle cx="32" cy="32" r="32" fill="#ffffff" />
  <path
    fill="#111111"
    transform="translate(14.0988 56.7257) scale(0.0342936 -0.0342936)"
    d="M143 1434Q268 1434 391.5 1435Q515 1436 618 1437.5Q721 1439 794 1442Q867 1445 893 1450L844 1317Q811 1326 767 1333Q729 1339 674.5 1344.5Q620 1350 549 1350Q525 1350 491.5 1348.5Q458 1347 427 1345Q391 1343 354 1341V795Q457 796 540 801Q623 806 681 811Q749 817 801 825L770 680Q701 689 629 697Q567 704 494 709.5Q421 715 354 715V88Q472 88 571 98Q670 108 744 121Q830 135 901 154L872 -8Q860 -7 836 -6Q812 -5 782.5 -4Q753 -3 720.5 -2.5Q688 -2 659 -1.5Q630 -1 607.5 -0.5Q585 0 575 0H143V4Q149 25 154.5 56Q160 87 164 133Q168 179 170 242.5Q172 306 172 391V1042Q172 1127 170 1190.5Q168 1254 164 1300.5Q160 1347 154.5 1378Q149 1409 143 1430V1434Z" />
</svg>
