<svg xmlns="http://www.w3.org/2000/svg" viewBox="0 424 1600 438" fill="none">
  <path d="M0.00 382.50 L1.46 382.39 L2.91 382.09 L4.37 381.60 L5.82 381.02 L7.28 380.46 L8.73 379.84 L10.19 379.15 L11.64 378.45 L13.10 377.89 L14.55 377.45 L16.01 377.01 L17.46 376.44 L18.92 375.70 L20.37 374.91 L21.83 374.18 L23.28 373.50 L24.74 372.87 L26.19 372.31 L27.65 371.67 L29.10 370.77 L30.56 369.73 L32.01 368.91 L33.47 368.32 L34.92 367.81 L36.38 367.28 L37.84 366.62 L39.29 365.80 L40.75 365.00 L42.20 364.49 L43.66 364.29 L45.11 364.19 L46.57 364.07 L48.02 363.91 L49.48 363.83 L50.93 363.76 L52.39 363.63 L53.84 363.39 L55.30 363.08 L56.75 362.67 L58.21 362.06 L59.66 361.42 L61.12 360.91 L62.57 360.53 L64.03 360.12 L65.48 359.49 L66.94 358.76 L68.39 358.08 L69.85 357.57 L71.31 357.17 L72.76 356.72 L74.22 356.16 L75.67 355.60 L77.13 355.19 L78.58 354.87 L80.04 354.55 L81.49 354.21 L82.95 353.87 L84.40 353.53 L85.86 353.19 L87.31 352.83 L88.77 352.44 L90.22 351.96 L91.68 351.42 L93.13 350.86 L94.59 350.45 L96.04 350.21 L97.50 349.99 L98.95 349.67 L100.41 349.26 L101.86 348.87 L103.32 348.53 L104.77 348.22 L106.23 347.95 L107.69 347.66 L109.14 347.37 L110.60 347.12 L112.05 346.90 L113.51 346.73 L114.96 346.56 L116.42 346.44 L117.87 346.46 L119.33 346.73 L120.78 347.24 L122.24 347.80 L123.69 348.21 L125.15 348.51 L126.60 348.77 L128.06 348.99 L129.51 349.19 L130.97 349.31 L132.42 349.36 L133.88 349.31 L135.33 349.19 L136.79 349.11 L138.24 349.28 L139.70 349.70 L141.16 350.16 L142.61 350.55 L144.07 350.89 L145.52 351.18 L146.98 351.40 L148.43 351.57 L149.89 351.74 L151.34 351.86 L152.80 351.91 L154.25 351.91 L155.71 351.86 L157.16 351.74 L158.62 351.59 L160.07 351.50 L161.53 351.49 L162.98 351.44 L164.44 351.27 L165.89 350.94 L167.35 350.54 L168.80 350.14 L170.26 349.74 L171.71 349.23 L173.17 348.67 L174.62 348.26 L176.08 348.10 L177.54 348.14 L178.99 348.26 L180.45 348.41 L181.90 348.48 L183.36 348.39 L184.81 348.14 L186.27 347.73 L187.72 347.22 L189.18 346.68 L190.63 346.10 L192.09 345.54 L193.54 344.93 L195.00 344.21 L196.45 343.46 L197.91 342.80 L199.36 342.38 L200.82 342.19 L202.27 342.14 L203.73 342.14 L205.18 342.14 L206.64 342.14 L208.09 342.14 L209.55 342.14 L211.01 342.14 L212.46 342.14 L213.92 342.14 L215.37 342.14 L216.83 342.14 L218.28 342.14 L219.74 342.14 L221.19 342.14 L222.65 342.14 L224.10 342.14 L225.56 342.09 L227.01 341.97 L228.47 341.80 L229.92 341.63 L231.38 341.46 L232.83 341.34 L234.29 341.29 L235.74 341.29 L237.20 341.29 L238.65 341.29 L240.11 341.29 L241.56 341.27 L243.02 341.19 L244.47 341.03 L245.93 340.86 L247.39 340.69 L248.84 340.54 L250.30 340.45 L251.75 340.44 L253.21 340.44 L254.66 340.44 L256.12 340.44 L257.57 340.44 L259.03 340.44 L260.48 340.44 L261.94 340.44 L263.39 340.39 L264.85 340.27 L266.30 340.10 L267.76 339.91 L269.21 339.60 L270.67 339.16 L272.12 338.72 L273.58 338.43 L275.03 338.38 L276.49 338.48 L277.94 338.65 L279.40 338.84 L280.85 339.16 L282.31 339.64 L283.77 340.17 L285.22 340.54 L286.68 340.81 L288.13 341.03 L289.59 341.30 L291.04 341.64 L292.50 342.04 L293.95 342.44 L295.41 342.82 L296.86 343.12 L298.32 343.41 L299.77 343.67 L301.23 343.89 L302.68 344.09 L304.14 344.21 L305.59 344.26 L307.05 344.26 L308.50 344.26 L309.96 344.21 L311.41 344.04 L312.87 343.70 L314.32 343.26 L315.78 342.80 L317.24 342.41 L318.69 342.02 L320.15 341.64 L321.60 341.29 L323.06 340.93 L324.51 340.54 L325.97 340.08 L327.42 339.57 L328.88 338.99 L330.33 338.36 L331.79 337.72 L333.24 337.04 L334.70 336.36 L336.15 335.66 L337.61 334.89 L339.06 334.06 L340.52 333.21 L341.97 332.41 L343.43 331.68 L344.88 331.00 L346.34 330.30 L347.79 329.39 L349.25 328.11 L350.70 326.51 L352.16 324.93 L353.62 323.69 L355.07 322.65 L356.53 321.36 L357.98 319.51 L359.44 317.66 L360.89 316.18 L362.35 314.65 L363.80 312.73 L365.26 311.04 L366.71 309.82 L368.17 308.90 L369.62 307.97 L371.08 306.69 L372.53 304.77 L373.99 302.36 L375.44 300.11 L376.90 298.28 L378.35 296.80 L379.81 295.84 L381.26 295.27 L382.72 294.64 L384.17 293.55 L385.63 292.12 L387.09 290.97 L388.54 290.15 L390.00 289.10 L391.45 287.51 L392.91 286.07 L394.36 285.00 L395.82 284.17 L397.27 283.32 L398.73 282.40 L400.18 281.05 L401.64 279.27 L403.09 277.43 L404.55 275.92 L406.00 274.49 L407.46 273.01 L408.91 271.84 L410.37 270.90 L411.82 269.85 L413.28 268.44 L414.73 266.74 L416.19 264.99 L417.64 263.58 L419.10 262.49 L420.55 261.37 L422.01 260.11 L423.47 258.80 L424.92 257.76 L426.38 257.08 L427.83 256.61 L429.29 256.17 L430.74 255.69 L432.20 255.18 L433.65 254.72 L435.11 254.38 L436.56 254.23 L438.02 254.26 L439.47 254.41 L440.93 254.53 L442.38 254.58 L443.84 254.58 L445.29 254.58 L446.75 254.58 L448.20 254.65 L449.66 254.87 L451.11 255.33 L452.57 255.96 L454.02 256.74 L455.48 257.93 L456.93 259.62 L458.39 261.50 L459.85 262.95 L461.30 264.10 L462.76 265.77 L464.21 268.07 L465.67 270.00 L467.12 271.06 L468.58 271.41 L470.03 272.06 L471.49 273.30 L472.94 274.80 L474.40 275.65 L475.85 275.83 L477.31 275.90 L478.76 276.17 L480.22 276.74 L481.67 277.53 L483.13 278.74 L484.58 280.41 L486.04 282.11 L487.49 283.60 L488.95 284.91 L490.40 286.19 L491.86 287.41 L493.32 288.69 L494.77 290.15 L496.23 291.78 L497.68 293.04 L499.14 293.86 L500.59 294.59 L502.05 295.39 L503.50 296.24 L504.96 297.07 L506.41 297.83 L507.87 298.55 L509.32 299.47 L510.78 300.64 L512.23 301.81 L513.69 302.63 L515.14 303.15 L516.60 303.63 L518.05 304.12 L519.51 304.57 L520.96 305.06 L522.42 305.91 L523.87 307.25 L525.33 309.09 L526.78 311.35 L528.24 313.76 L529.70 316.11 L531.15 317.78 L532.61 318.90 L534.06 319.80 L535.52 320.72 L536.97 321.45 L538.43 322.01 L539.88 322.65 L541.34 323.47 L542.79 324.54 L544.25 325.75 L545.70 326.72 L547.16 327.23 L548.61 327.48 L550.07 327.82 L551.52 328.28 L552.98 328.77 L554.43 329.13 L555.89 329.22 L557.34 328.91 L558.80 328.32 L560.25 327.69 L561.71 327.41 L563.17 327.55 L564.62 327.96 L566.08 328.42 L567.53 328.91 L568.99 329.51 L570.44 330.24 L571.90 330.97 L573.35 331.53 L574.81 331.94 L576.26 332.33 L577.72 332.80 L579.17 333.40 L580.63 334.06 L582.08 334.69 L583.54 335.22 L584.99 335.69 L586.45 336.19 L587.90 336.65 L589.36 337.02 L590.81 337.33 L592.27 337.60 L593.72 337.90 L595.18 338.24 L596.63 338.67 L598.09 339.18 L599.55 339.77 L601.00 340.44 L602.46 341.07 L603.91 341.58 L605.37 341.97 L606.82 342.27 L608.28 342.63 L609.73 343.07 L611.19 343.57 L612.64 343.96 L614.10 344.26 L615.55 344.55 L617.01 344.86 L618.46 345.25 L619.92 345.71 L621.37 346.22 L622.83 346.73 L624.28 347.24 L625.74 347.75 L627.19 348.29 L628.65 348.82 L630.10 349.21 L631.56 349.45 L633.02 349.62 L634.47 349.75 L635.93 349.96 L637.38 350.37 L638.84 350.96 L640.29 351.54 L641.75 351.96 L643.20 352.27 L644.66 352.51 L646.11 352.76 L647.57 353.02 L649.02 353.24 L650.48 353.44 L651.93 353.56 L653.39 353.56 L654.84 353.44 L656.30 353.24 L657.75 353.02 L659.21 352.76 L660.66 352.51 L662.12 352.27 L663.57 351.91 L665.03 351.39 L666.48 350.79 L667.94 350.38 L669.40 350.25 L670.85 350.33 L672.31 350.64 L673.76 351.13 L675.22 351.69 L676.67 352.12 L678.13 352.41 L679.58 352.71 L681.04 353.09 L682.49 353.51 L683.95 354.00 L685.40 354.72 L686.86 355.64 L688.31 356.49 L689.77 357.06 L691.22 357.44 L692.68 357.78 L694.13 358.12 L695.59 358.41 L697.04 358.61 L698.50 358.76 L699.95 359.10 L701.41 359.80 L702.86 360.67 L704.32 361.38 L705.78 361.84 L707.23 362.25 L708.69 362.71 L710.14 363.20 L711.60 363.57 L713.05 363.76 L714.51 363.83 L715.96 363.93 L717.42 364.24 L718.87 364.80 L720.33 365.62 L721.78 366.50 L723.24 367.23 L724.69 367.84 L726.15 368.42 L727.60 368.91 L729.06 369.24 L730.51 369.42 L731.97 369.64 L733.42 369.93 L734.88 370.27 L736.33 370.60 L737.79 370.90 L739.25 371.17 L740.70 371.46 L742.16 371.70 L743.61 371.84 L745.07 371.89 L746.52 371.89 L747.98 371.87 L749.43 371.79 L750.89 371.63 L752.34 371.53 L753.80 371.65 L755.25 372.21 L756.71 373.13 L758.16 374.06 L759.62 374.78 L761.07 375.41 L762.53 376.17 L763.98 377.07 L765.44 377.97 L766.89 378.64 L768.35 379.01 L769.80 379.20 L771.26 379.39 L772.71 379.59 L774.17 379.86 L775.63 380.20 L777.08 380.69 L778.54 381.22 L779.99 381.68 L781.45 381.97 L782.90 382.07 L784.36 382.09 L785.81 382.04 L787.27 381.92 L788.72 381.77 L790.18 381.75 L791.63 381.94 L793.09 382.31 L794.54 382.73 L796.00 383.21 L797.45 383.65 L798.91 383.99 L800.36 384.21 L801.82 384.40 L803.27 384.64 L804.73 384.94 L806.18 385.35 L807.64 385.96 L809.10 386.70 L810.55 387.61 L812.01 388.72 L813.46 389.79 L814.92 390.69 L816.37 391.61 L817.83 392.75 L819.28 394.04 L820.74 395.28 L822.19 396.20 L823.65 396.78 L825.10 397.10 L826.56 397.41 L828.01 397.73 L829.47 398.02 L830.92 398.24 L832.38 398.41 L833.83 398.56 L835.29 398.70 L836.74 398.89 L838.20 399.21 L839.65 399.57 L841.11 399.82 L842.56 399.92 L844.02 399.94 L845.48 399.94 L846.93 399.99 L848.39 400.13 L849.84 400.38 L851.30 400.77 L852.75 401.28 L854.21 401.91 L855.66 402.59 L857.12 403.36 L858.57 404.19 L860.03 405.04 L861.48 405.87 L862.94 406.64 L864.39 407.35 L865.85 408.17 L867.30 409.12 L868.76 410.09 L870.21 410.99 L871.67 411.99 L873.12 413.13 L874.58 414.17 L876.03 414.63 L877.49 414.42 L878.94 413.79 L880.40 413.18 L881.86 413.01 L883.31 413.34 L884.77 413.85 L886.22 414.22 L887.68 414.37 L889.13 414.39 L890.59 414.39 L892.04 414.39 L893.50 414.39 L894.95 414.39 L896.41 414.39 L897.86 414.39 L899.32 414.39 L900.77 414.39 L902.23 414.39 L903.68 414.44 L905.14 414.63 L906.59 415.07 L908.05 415.82 L909.50 416.75 L910.96 417.65 L912.41 418.44 L913.87 419.15 L915.33 419.74 L916.78 420.31 L918.24 421.09 L919.69 422.23 L921.15 423.43 L922.60 424.32 L924.06 424.83 L925.51 425.13 L926.97 425.34 L928.42 425.42 L929.88 425.44 L931.33 425.39 L932.79 425.27 L934.24 425.12 L935.70 425.03 L937.15 425.02 L938.61 425.02 L940.06 424.96 L941.52 424.85 L942.97 424.69 L944.43 424.61 L945.88 424.54 L947.34 424.42 L948.79 424.27 L950.25 424.18 L951.71 424.15 L953.16 424.05 L954.62 423.79 L956.07 423.38 L957.53 422.94 L958.98 422.64 L960.44 422.64 L961.89 422.94 L963.35 423.33 L964.80 423.62 L966.26 423.71 L967.71 423.64 L969.17 423.49 L970.62 423.37 L972.08 423.26 L973.53 423.15 L974.99 422.99 L976.44 422.91 L977.90 422.89 L979.35 422.84 L980.81 422.72 L982.26 422.57 L983.72 422.48 L985.18 422.47 L986.63 422.47 L988.09 422.47 L989.54 422.45 L991.00 422.36 L992.45 422.16 L993.91 421.92 L995.36 421.67 L996.82 421.45 L998.27 421.14 L999.73 420.73 L1001.18 420.31 L1002.64 419.93 L1004.09 419.63 L1005.55 419.37 L1007.00 419.17 L1008.46 419.15 L1009.91 419.35 L1011.37 419.80 L1012.82 420.27 L1014.28 420.61 L1015.73 420.75 L1017.19 420.77 L1018.64 420.77 L1020.10 420.77 L1021.56 420.71 L1023.01 420.61 L1024.47 420.61 L1025.92 420.94 L1027.38 421.45 L1028.83 421.75 L1030.29 421.60 L1031.74 421.07 L1033.20 420.37 L1034.65 419.68 L1036.11 419.15 L1037.56 418.91 L1039.02 419.01 L1040.47 419.34 L1041.93 419.85 L1043.38 420.61 L1044.84 421.43 L1046.29 421.89 L1047.75 421.94 L1049.20 421.79 L1050.66 421.65 L1052.11 421.51 L1053.57 421.31 L1055.03 421.07 L1056.48 420.87 L1057.94 420.73 L1059.39 420.60 L1060.85 420.43 L1062.30 420.25 L1063.76 420.09 L1065.21 419.97 L1066.67 419.92 L1068.12 419.98 L1069.58 420.20 L1071.03 420.60 L1072.49 420.95 L1073.94 421.12 L1075.40 421.02 L1076.85 420.66 L1078.31 420.19 L1079.76 419.83 L1081.22 419.69 L1082.67 419.76 L1084.13 419.92 L1085.58 420.15 L1087.04 420.51 L1088.49 420.90 L1089.95 421.11 L1091.41 420.95 L1092.86 420.27 L1094.32 419.15 L1095.77 418.01 L1097.23 417.13 L1098.68 416.41 L1100.14 415.70 L1101.59 414.98 L1103.05 414.34 L1104.50 413.76 L1105.96 413.30 L1107.41 413.00 L1108.87 412.74 L1110.32 412.49 L1111.78 412.18 L1113.23 411.84 L1114.69 411.50 L1116.14 411.21 L1117.60 411.04 L1119.05 411.01 L1120.51 411.11 L1121.96 411.35 L1123.42 411.62 L1124.87 411.79 L1126.33 411.89 L1127.79 412.01 L1129.24 412.21 L1130.70 412.43 L1132.15 412.69 L1133.61 412.98 L1135.06 413.25 L1136.52 413.54 L1137.97 413.79 L1139.43 414.02 L1140.88 414.22 L1142.34 414.34 L1143.79 414.39 L1145.25 414.39 L1146.70 414.39 L1148.16 414.39 L1149.61 414.44 L1151.07 414.63 L1152.52 415.00 L1153.98 415.53 L1155.43 416.07 L1156.89 416.60 L1158.34 417.11 L1159.80 417.62 L1161.26 418.10 L1162.71 418.57 L1164.17 419.03 L1165.62 419.44 L1167.08 419.74 L1168.53 419.97 L1169.99 420.22 L1171.44 420.51 L1172.90 420.88 L1174.35 421.29 L1175.81 421.72 L1177.26 422.09 L1178.72 422.40 L1180.17 422.62 L1181.63 422.79 L1183.08 422.87 L1184.54 422.96 L1185.99 423.18 L1187.45 423.64 L1188.90 424.27 L1190.36 425.03 L1191.81 425.85 L1193.27 426.55 L1194.72 427.02 L1196.18 427.31 L1197.64 427.58 L1199.09 427.99 L1200.55 428.64 L1202.00 429.54 L1203.46 430.44 L1204.91 431.15 L1206.37 431.65 L1207.82 432.05 L1209.28 432.50 L1210.73 432.90 L1212.19 433.21 L1213.64 433.46 L1215.10 433.72 L1216.55 434.03 L1218.01 434.35 L1219.46 434.62 L1220.92 434.91 L1222.37 435.37 L1223.83 435.96 L1225.28 436.54 L1226.74 437.02 L1228.19 437.46 L1229.65 437.94 L1231.11 438.45 L1232.56 438.96 L1234.02 439.41 L1235.47 439.72 L1236.93 439.77 L1238.38 439.62 L1239.84 439.41 L1241.29 439.23 L1242.75 439.26 L1244.20 439.58 L1245.66 440.09 L1247.11 440.50 L1248.57 440.69 L1250.02 440.69 L1251.48 440.52 L1252.93 440.23 L1254.39 439.91 L1255.84 439.60 L1257.30 439.33 L1258.75 438.99 L1260.21 438.58 L1261.66 438.17 L1263.12 437.88 L1264.57 437.78 L1266.03 437.77 L1267.49 437.77 L1268.94 437.78 L1270.40 437.87 L1271.85 438.07 L1273.31 438.31 L1274.76 438.51 L1276.22 438.65 L1277.67 438.80 L1279.13 439.11 L1280.58 439.67 L1282.04 440.50 L1283.49 441.44 L1284.95 442.20 L1286.40 442.73 L1287.86 443.12 L1289.31 443.43 L1290.77 443.73 L1292.22 444.12 L1293.68 444.68 L1295.13 445.43 L1296.59 446.32 L1298.04 447.23 L1299.50 448.12 L1300.95 448.90 L1302.41 449.68 L1303.87 450.50 L1305.32 451.21 L1306.78 451.77 L1308.23 452.25 L1309.69 452.68 L1311.14 453.07 L1312.60 453.42 L1314.05 453.80 L1315.51 454.12 L1316.96 454.29 L1318.42 454.34 L1319.87 454.36 L1321.33 454.44 L1322.78 454.60 L1324.24 454.63 L1325.69 454.34 L1327.15 453.76 L1328.60 453.34 L1330.06 453.25 L1331.51 453.39 L1332.97 453.47 L1334.42 453.59 L1335.88 454.09 L1337.34 455.04 L1338.79 456.02 L1340.25 456.69 L1341.70 457.01 L1343.16 457.21 L1344.61 457.28 L1346.07 457.20 L1347.52 456.89 L1348.98 456.35 L1350.43 455.65 L1351.89 454.94 L1353.34 454.29 L1354.80 453.70 L1356.25 453.19 L1357.71 452.74 L1359.16 452.34 L1360.62 452.03 L1362.07 451.96 L1363.53 452.17 L1364.98 452.54 L1366.44 452.95 L1367.89 453.27 L1369.35 453.39 L1370.80 453.25 L1372.26 452.90 L1373.72 452.51 L1375.17 452.28 L1376.63 452.22 L1378.08 452.22 L1379.54 452.22 L1380.99 452.22 L1382.45 452.40 L1383.90 453.64 L1385.36 456.23 L1386.81 459.22 L1388.27 461.50 L1389.72 462.93 L1391.18 463.95 L1392.63 464.71 L1394.09 465.37 L1395.54 465.90 L1397.00 466.11 L1398.45 465.97 L1399.91 465.66 L1401.36 465.53 L1402.82 465.83 L1404.27 466.84 L1405.73 468.28 L1407.19 469.45 L1408.64 469.96 L1410.10 469.95 L1411.55 469.71 L1413.01 469.44 L1414.46 469.27 L1415.92 469.22 L1417.37 469.22 L1418.83 469.22 L1420.28 469.27 L1421.74 469.44 L1423.19 469.71 L1424.65 469.95 L1426.10 470.07 L1427.56 470.17 L1429.01 470.34 L1430.47 470.56 L1431.92 470.85 L1433.38 471.12 L1434.83 471.29 L1436.29 471.36 L1437.74 471.44 L1439.20 471.65 L1440.65 471.94 L1442.11 472.26 L1443.57 472.51 L1445.02 472.70 L1446.48 472.96 L1447.93 473.43 L1449.39 474.20 L1450.84 475.00 L1452.30 475.68 L1453.75 476.32 L1455.21 477.05 L1456.66 477.73 L1458.12 478.48 L1459.57 479.62 L1461.03 481.20 L1462.48 482.65 L1463.94 483.75 L1465.39 484.52 L1466.85 485.20 L1468.30 485.79 L1469.76 486.39 L1471.21 487.02 L1472.67 487.66 L1474.12 488.39 L1475.58 489.19 L1477.04 490.04 L1478.49 490.91 L1479.95 491.84 L1481.40 492.85 L1482.86 493.82 L1484.31 494.72 L1485.77 495.50 L1487.22 495.98 L1488.68 495.75 L1490.13 494.77 L1491.59 493.29 L1493.04 491.73 L1494.50 490.57 L1495.95 490.54 L1497.41 491.86 L1498.86 493.83 L1500.32 495.21 L1501.77 495.77 L1503.23 495.94 L1504.68 495.98 L1506.14 495.87 L1507.59 495.62 L1509.05 495.19 L1510.50 494.65 L1511.96 494.07 L1513.42 493.56 L1514.87 493.12 L1516.33 492.64 L1517.78 491.98 L1519.24 491.03 L1520.69 489.89 L1522.15 488.90 L1523.60 488.29 L1525.06 488.65 L1526.51 490.09 L1527.97 492.01 L1529.42 493.14 L1530.88 493.32 L1532.33 493.09 L1533.79 492.83 L1535.24 492.76 L1536.70 493.03 L1538.15 493.65 L1539.61 494.45 L1541.06 495.09 L1542.52 495.45 L1543.97 495.57 L1545.43 495.67 L1546.88 495.82 L1548.34 495.94 L1549.80 495.99 L1551.25 495.99 L1552.71 495.99 L1554.16 495.99 L1555.62 495.99 L1557.07 495.94 L1558.53 495.62 L1559.98 494.96 L1561.44 494.34 L1562.89 494.17 L1564.35 494.53 L1565.80 495.14 L1567.26 495.75 L1568.71 496.18 L1570.17 496.37 L1571.62 496.35 L1573.08 496.08 L1574.53 495.55 L1575.99 494.90 L1577.44 494.29 L1578.90 493.73 L1580.35 493.20 L1581.81 492.83 L1583.27 492.64 L1584.72 492.59 L1586.18 492.59 L1587.63 492.59 L1589.09 492.59 L1590.54 492.59 L1592.00 492.59 L1593.45 492.59 L1594.91 492.59 L1596.36 492.59 L1597.82 492.59 L1599.27 492.59 L1600.00 492.59" transform="matrix(-1 0 0 1.71195 1600 0)" stroke="#111111" stroke-width="3.2" stroke-linecap="round" stroke-linejoin="round" />
</svg>
